<svg width="512" height="512" viewBox="0 0 512 512" fill="none" xmlns="http://www.w3.org/2000/svg">
<path d="M192.518 214C202.275 150.4 256.787 100.167 282.12 82C309.798 180.5 364.936 189.846 359.524 248.346C354.113 306.846 312.143 327.846 304.637 332.346C297.131 336.846 284.465 338.654 264.762 335.5C245.059 332.346 180.32 293.5 192.518 214Z" stroke="#7CB66C" stroke-width="20"/>
<path d="M192.518 214C202.275 150.4 256.787 100.167 282.12 82C309.798 180.5 364.936 189.846 359.524 248.346C354.113 306.846 312.143 327.846 304.637 332.346C297.131 336.846 284.465 338.654 264.762 335.5C245.059 332.346 180.32 293.5 192.518 214Z" fill="#424345" stroke="#292B29" stroke-width="10"/>
<path d="M246.428 267.392C260.866 282.576 268.499 320.164 270.511 337.06C237.624 337.35 200.121 312.371 185.374 294.509C180.116 288.14 157.91 258.638 171.518 222.606C211.415 231.95 237.391 255.326 246.428 267.392Z" fill="#7CB66C" stroke="#7CB66C" stroke-width="16"/>
<path d="M246.428 267.392C260.866 282.576 268.499 320.164 270.511 337.06C237.624 337.35 200.121 312.371 185.374 294.509C180.116 288.14 157.91 258.638 171.518 222.606C211.415 231.95 237.391 255.326 246.428 267.392Z" stroke="#292B29" stroke-width="10"/>
<line x1="278" y1="306.929" x2="334.929" y2="250" stroke="#292B29" stroke-width="10" stroke-linecap="round"/>
<line x1="278" y1="250.343" x2="313.343" y2="215" stroke="#292B29" stroke-width="8" stroke-linecap="round"/>
<line x1="278" y1="195.757" x2="297.757" y2="176" stroke="#292B29" stroke-width="6" stroke-linecap="round"/>
<line x1="277" y1="135" x2="277" y2="342" stroke="#292B29" stroke-width="10"/>
<path d="M75.9369 453.12L66.3369 453.024C65.3769 451.744 64.7049 450.368 64.3209 448.896C63.9369 447.36 63.7449 445.6 63.7449 443.616C63.7449 441.632 63.9369 439.008 64.3209 435.744C64.7049 432.416 65.1529 428.704 65.6649 424.608C66.2409 420.512 66.7849 416.256 67.2969 411.84C67.8729 407.424 68.3529 403.072 68.7369 398.784C69.1209 394.496 69.3129 390.528 69.3129 386.88C69.3129 385.536 69.2809 384.192 69.2169 382.848C69.1529 381.504 69.0569 380.224 68.9289 379.008C72.0649 379.136 74.4969 379.488 76.2249 380.064C78.0169 380.64 79.3289 381.44 80.1609 382.464C80.9929 383.424 81.5049 384.576 81.6969 385.92C81.9529 387.2 82.0809 388.672 82.0809 390.336C82.0809 392.384 81.8569 395.2 81.4089 398.784C81.0249 402.368 80.5129 406.368 79.8729 410.784C79.2329 415.2 78.5929 419.712 77.9529 424.32C77.3129 428.928 76.7689 433.344 76.3209 437.568C75.9369 441.728 75.7449 445.376 75.7449 448.512C75.7449 449.344 75.7449 450.144 75.7449 450.912C75.8089 451.68 75.8729 452.416 75.9369 453.12ZM58.6569 457.056C58.8489 456.352 59.2009 455.424 59.7129 454.272C60.2889 453.056 61.1849 451.84 62.4009 450.624C63.6169 449.408 65.2809 448.384 67.3929 447.552C69.5049 446.72 72.2249 446.304 75.5529 446.304C80.1609 446.304 84.6089 446.176 88.8969 445.92C93.2489 445.6 97.1849 445.184 100.705 444.672C104.289 444.16 107.105 443.552 109.153 442.848C108.641 447.392 107.233 450.912 104.929 453.408C102.625 455.84 99.8089 457.056 96.4809 457.056C95.1369 457.056 93.3449 456.928 91.1049 456.672C88.8649 456.416 86.3049 456.16 83.4249 455.904C80.6089 455.648 77.5689 455.52 74.3049 455.52C71.8729 455.52 69.3449 455.648 66.7209 455.904C64.0969 456.096 61.4089 456.48 58.6569 457.056ZM133.333 457.44C130.901 457.44 128.469 456.96 126.037 456C123.605 454.976 121.397 453.44 119.413 451.392C117.493 449.344 115.925 446.752 114.709 443.616C113.557 440.416 112.981 436.64 112.981 432.288C112.981 426.976 113.845 422.048 115.573 417.504C117.301 412.896 119.733 409.024 122.869 405.888C126.069 402.688 129.813 400.48 134.101 399.264C134.805 399.264 135.381 399.456 135.829 399.84C136.341 400.224 136.629 400.672 136.693 401.184C134.453 402.592 132.277 404.608 130.165 407.232C128.053 409.856 126.517 413.28 125.557 417.504L126.133 417.696C127.925 413.344 130.037 409.952 132.469 407.52C134.965 405.088 137.525 403.392 140.149 402.432C142.773 401.408 145.141 400.896 147.253 400.896C150.069 400.896 152.565 401.728 154.741 403.392C156.917 405.056 158.645 407.456 159.925 410.592C161.205 413.664 161.845 417.376 161.845 421.728C161.845 425.824 161.301 429.984 160.213 434.208C159.189 438.368 157.525 442.208 155.221 445.728C152.981 449.248 150.037 452.096 146.389 454.272C142.805 456.384 138.453 457.44 133.333 457.44ZM135.253 450.72C137.621 450.72 139.733 449.92 141.589 448.32C143.445 446.72 145.013 444.576 146.293 441.888C147.637 439.2 148.629 436.224 149.269 432.96C149.973 429.696 150.325 426.464 150.325 423.264C150.325 417.568 149.589 413.568 148.117 411.264C146.645 408.896 144.757 407.712 142.453 407.712C140.277 407.712 138.165 408.512 136.117 410.112C134.133 411.648 132.373 413.728 130.837 416.352C129.301 418.912 128.085 421.76 127.189 424.896C126.293 428.032 125.845 431.104 125.845 434.112C125.845 437.12 126.165 439.904 126.805 442.464C127.445 444.96 128.437 446.976 129.781 448.512C131.125 449.984 132.949 450.72 135.253 450.72ZM185.095 434.304C185.095 439.552 185.895 443.584 187.495 446.4C189.159 449.152 191.527 450.528 194.599 450.528C196.967 450.528 199.399 449.728 201.895 448.128C204.455 446.464 206.695 444.128 208.615 441.12C209.703 441.376 210.567 441.792 211.207 442.368C211.847 442.88 212.167 443.584 212.167 444.48C210.183 447.872 207.943 450.528 205.447 452.448C202.951 454.304 200.423 455.584 197.863 456.288C195.303 457.056 192.935 457.44 190.759 457.44C187.623 457.44 184.615 456.64 181.735 455.04C178.919 453.44 176.615 450.976 174.823 447.648C173.095 444.256 172.231 439.968 172.231 434.784C172.231 430.304 172.839 426.016 174.055 421.92C175.335 417.824 177.191 414.176 179.623 410.976C182.055 407.776 185.031 405.248 188.551 403.392C192.135 401.536 196.199 400.608 200.743 400.608C204.199 400.608 206.983 401.216 209.095 402.432C211.271 403.584 212.871 405.12 213.895 407.04C214.919 408.896 215.431 410.848 215.431 412.896C215.431 414.88 214.983 416.768 214.087 418.56C213.255 420.352 212.039 421.856 210.439 423.072C208.903 424.224 207.079 424.8 204.967 424.8C204.263 424.8 203.527 424.736 202.759 424.608C201.991 424.416 201.223 424.16 200.455 423.84C201.287 422.88 202.055 421.376 202.759 419.328C203.527 417.216 203.975 415.136 204.103 413.088C204.167 411.232 203.847 409.664 203.143 408.384C202.439 407.04 201.095 406.368 199.111 406.368C196.935 406.368 194.983 407.232 193.255 408.96C191.527 410.624 190.055 412.832 188.839 415.584C187.623 418.336 186.695 421.344 186.055 424.608C185.415 427.872 185.095 431.104 185.095 434.304ZM239.903 420.96C241.311 415.968 243.071 411.968 245.183 408.96C247.295 405.952 249.535 403.776 251.903 402.432C254.335 401.088 256.639 400.416 258.815 400.416C262.527 400.416 265.375 401.568 267.359 403.872C269.407 406.176 270.431 409.28 270.431 413.184C270.431 415.744 269.887 418.144 268.799 420.384C267.775 422.624 266.303 424.576 264.383 426.24C262.463 427.904 260.159 429.248 257.471 430.272L258.623 433.824C259.775 437.536 261.215 441.152 262.943 444.672C264.735 448.192 266.559 451.456 268.415 454.464C270.271 457.408 272.031 459.936 273.695 462.048C275.359 464.224 276.671 465.76 277.631 466.656C276.607 466.912 275.583 467.104 274.559 467.232C273.599 467.424 272.703 467.52 271.871 467.52C268.671 467.52 265.823 466.496 263.327 464.448C260.831 462.464 258.623 459.776 256.703 456.384C254.783 452.992 253.023 449.248 251.423 445.152C249.823 440.992 248.287 436.8 246.815 432.576C246.175 432.64 245.567 432.672 244.991 432.672C244.415 432.672 243.807 432.672 243.167 432.672C242.783 432.352 242.591 431.328 242.591 429.6C245.663 429.536 248.255 429.024 250.367 428.064C252.543 427.04 254.271 425.76 255.551 424.224C256.895 422.624 257.855 420.96 258.431 419.232C259.007 417.44 259.295 415.776 259.295 414.24C259.295 412.576 258.943 411.168 258.239 410.016C257.599 408.864 256.511 408.288 254.975 408.288C253.119 408.288 251.231 409.28 249.311 411.264C247.455 413.248 245.695 416.032 244.031 419.616C242.367 423.2 241.023 427.328 239.999 432C238.975 436.672 238.463 441.664 238.463 446.976C238.463 448.448 238.495 449.92 238.559 451.392C238.623 452.8 238.783 454.336 239.039 456C238.335 456.064 237.663 456.096 237.023 456.096C236.447 456.16 235.903 456.192 235.391 456.192C231.935 456.192 229.407 455.584 227.807 454.368C226.271 453.088 225.503 450.976 225.503 448.032C225.503 445.92 225.727 443.072 226.175 439.488C226.623 435.904 227.167 431.776 227.807 427.104C228.511 422.432 229.215 417.408 229.919 412.032C230.623 406.656 231.199 401.12 231.647 395.424C232.095 389.664 232.319 383.968 232.319 378.336C232.319 375.712 232.223 373.44 232.031 371.52C231.839 369.536 231.551 368.064 231.167 367.104C234.303 368 236.703 369.184 238.367 370.656C240.095 372.128 241.311 373.952 242.015 376.128C242.719 378.304 243.071 380.896 243.071 383.904C243.071 386.4 242.847 389.568 242.399 393.408C242.015 397.184 241.503 401.408 240.863 406.08C240.287 410.752 239.711 415.68 239.135 420.864L239.903 420.96ZM281.204 444.768C281.204 442.656 281.428 439.648 281.876 435.744C282.324 431.84 282.868 427.424 283.508 422.496C284.148 417.568 284.756 412.448 285.332 407.136C285.972 401.824 286.516 396.672 286.964 391.68C287.412 386.688 287.636 382.24 287.636 378.336C287.636 375.712 287.54 373.44 287.348 371.52C287.156 369.536 286.868 368.064 286.484 367.104C289.62 368 292.02 369.184 293.684 370.656C295.412 372.128 296.628 373.952 297.332 376.128C298.036 378.304 298.388 380.896 298.388 383.904C298.388 386.848 298.1 390.688 297.524 395.424C296.948 400.16 296.308 405.472 295.604 411.36C294.9 417.248 294.26 423.392 293.684 429.792C293.108 436.192 292.82 442.528 292.82 448.8C292.82 450.272 292.852 451.744 292.916 453.216C293.044 454.624 293.14 456.032 293.204 457.44C290.324 457.312 288.052 456.928 286.388 456.288C284.788 455.648 283.604 454.784 282.836 453.696C282.132 452.608 281.684 451.328 281.492 449.856C281.3 448.32 281.204 446.624 281.204 444.768ZM326.884 457.44C323.172 457.44 319.908 456.48 317.092 454.56C314.276 452.64 312.1 449.92 310.564 446.4C309.092 442.816 308.356 438.688 308.356 434.016C308.356 429.28 309.06 424.896 310.468 420.864C311.94 416.768 313.988 413.216 316.612 410.208C319.236 407.2 322.308 404.864 325.828 403.2C329.348 401.472 333.188 400.608 337.348 400.608C342.148 400.608 345.86 401.824 348.484 404.256C351.108 406.688 352.42 410.112 352.42 414.528C352.42 418.048 351.492 421.152 349.636 423.84C347.844 426.528 345.316 428.64 342.052 430.176C338.852 431.648 335.108 432.384 330.82 432.384C329.028 432.384 327.268 432.288 325.54 432.096C323.812 431.84 322.148 431.52 320.548 431.136L320.836 427.392H323.62C327.076 427.392 330.052 426.784 332.548 425.568C335.044 424.352 336.964 422.624 338.308 420.384C339.716 418.144 340.42 415.552 340.42 412.608C340.42 410.688 339.94 409.184 338.98 408.096C338.02 406.944 336.74 406.368 335.14 406.368C332.9 406.368 330.916 407.264 329.188 409.056C327.524 410.784 326.084 413.088 324.868 415.968C323.716 418.848 322.852 421.92 322.276 425.184C321.7 428.384 321.412 431.424 321.412 434.304C321.412 439.616 322.212 443.648 323.812 446.4C325.412 449.152 327.716 450.528 330.724 450.528C336.484 450.528 341.444 447.392 345.604 441.12C347.972 441.696 349.156 442.816 349.156 444.48C346.468 448.704 343.236 451.936 339.46 454.176C335.748 456.352 331.556 457.44 326.884 457.44ZM394.938 439.488C393.658 442.88 391.866 445.92 389.562 448.608C387.322 451.232 384.762 453.312 381.882 454.848C379.066 456.384 376.186 457.152 373.242 457.152C369.018 457.152 365.69 455.488 363.258 452.16C360.826 448.768 359.61 444.224 359.61 438.528C359.61 433.728 360.314 429.184 361.722 424.896C363.194 420.544 365.178 416.704 367.674 413.376C370.234 410.048 373.146 407.424 376.41 405.504C379.738 403.584 383.226 402.624 386.874 402.624C388.41 402.624 389.818 402.784 391.098 403.104C392.442 403.424 393.626 403.872 394.65 404.448C391.642 405.408 388.794 407.008 386.106 409.248C383.482 411.424 381.178 414.016 379.194 417.024C377.21 420.032 375.642 423.296 374.49 426.816C373.402 430.336 372.858 433.888 372.858 437.472C372.858 440.864 373.434 443.52 374.586 445.44C375.802 447.296 377.498 448.224 379.674 448.224C382.042 448.224 384.282 447.232 386.394 445.248C388.57 443.2 390.522 440.448 392.25 436.992C393.978 433.472 395.322 429.504 396.282 425.088C397.306 420.672 397.818 416.096 397.818 411.36C397.818 409.44 397.754 407.616 397.626 405.888C397.498 404.16 397.338 402.688 397.146 401.472C397.722 401.344 398.266 401.28 398.778 401.28C399.29 401.28 400.058 401.28 401.082 401.28C404.282 401.28 406.618 401.92 408.09 403.2C409.626 404.48 410.394 406.464 410.394 409.152C410.394 410.816 410.17 412.96 409.722 415.584C409.274 418.208 408.73 421.152 408.09 424.416C407.514 427.68 406.97 431.104 406.458 434.688C406.01 438.272 405.786 441.824 405.786 445.344C405.786 448.096 406.01 450.496 406.458 452.544C406.906 454.528 407.674 456.736 408.762 459.168C403.962 458.208 400.538 456.352 398.49 453.6C396.442 450.848 395.418 446.72 395.418 441.216C395.418 440.768 395.418 440.48 395.418 440.352C395.418 440.16 395.45 439.936 395.514 439.68L394.938 439.488ZM426.98 447.072C426.98 444.704 427.108 441.568 427.364 437.664C427.62 433.696 428.036 429.312 428.612 424.512C429.188 419.712 429.988 414.784 431.012 409.728C432.036 404.608 433.348 399.68 434.948 394.944C436.548 390.144 438.436 385.856 440.612 382.08C442.852 378.24 445.476 375.2 448.484 372.96C451.492 370.72 454.916 369.6 458.756 369.6C462.724 369.6 465.956 370.656 468.452 372.768C470.948 374.88 472.196 377.536 472.196 380.736C472.196 382.592 471.748 384.384 470.852 386.112C470.02 387.776 468.772 389.152 467.108 390.24C465.444 391.328 463.46 391.872 461.156 391.872C460.58 391.872 459.972 391.84 459.332 391.776C458.692 391.648 458.052 391.456 457.412 391.2C457.924 390.816 458.5 390.144 459.14 389.184C459.844 388.16 460.42 387.008 460.868 385.728C461.38 384.448 461.636 383.2 461.636 381.984C461.636 380.256 461.252 378.88 460.484 377.856C459.716 376.832 458.692 376.32 457.412 376.32C455.172 376.32 453.156 377.408 451.364 379.584C449.572 381.76 448.004 384.672 446.66 388.32C445.316 391.968 444.164 396.096 443.204 400.704C442.244 405.248 441.444 409.984 440.804 414.912C440.164 419.776 439.652 424.48 439.268 429.024C438.884 433.568 438.596 437.664 438.404 441.312C438.276 444.96 438.212 447.84 438.212 449.952C438.212 451.808 438.212 453.376 438.212 454.656C438.276 455.872 438.34 457.024 438.404 458.112C438.532 459.2 438.692 460.416 438.884 461.76C439.076 463.104 439.364 464.8 439.748 466.848C437.444 466.08 435.46 465.088 433.796 463.872C432.196 462.72 430.884 461.312 429.86 459.648C428.836 458.048 428.1 456.192 427.652 454.08C427.204 451.968 426.98 449.632 426.98 447.072ZM455.396 400.128C455.46 400.576 455.492 401.056 455.492 401.568C455.556 402.016 455.588 402.464 455.588 402.912C455.588 406.048 455.012 408.16 453.86 409.248C452.708 410.336 451.14 410.88 449.156 410.88C446.404 410.88 443.844 410.88 441.476 410.88C439.108 410.816 436.836 410.848 434.66 410.976C432.484 411.104 430.244 411.456 427.94 412.032C425.636 412.544 423.14 413.44 420.452 414.72C420.388 414.208 420.324 413.696 420.26 413.184C420.26 412.608 420.26 412.096 420.26 411.648C420.26 409.152 420.804 407.296 421.892 406.08C423.044 404.8 424.58 403.968 426.5 403.584C428.42 403.136 430.532 402.912 432.836 402.912C434.436 402.912 436.1 402.976 437.828 403.104C439.556 403.168 441.188 403.2 442.724 403.2C445.092 403.2 447.396 403.008 449.636 402.624C451.94 402.24 453.86 401.408 455.396 400.128Z" fill="white"/>
</svg>
